<svg xmlns="http://www.w3.org/2000/svg" xmlns:xlink="http://www.w3.org/1999/xlink" version="1.1" width="256" height="256" viewBox="0 0 256 256" xml:space="preserve">
<g style="stroke: none; stroke-width: 0; stroke-dasharray: none; stroke-linecap: butt; stroke-linejoin: miter; stroke-miterlimit: 10; fill: none; fill-rule: nonzero; opacity: 1;" transform="translate(1.4065934065934016 1.4065934065934016) scale(2.81 2.81)">
	<path d="M 64.86 76.232 h 4.044 c 0.975 0 1.766 -0.791 1.766 -1.766 v -12.16 h -7.575 v 12.16 C 63.095 75.441 63.885 76.232 64.86 76.232 z" style="stroke: none; stroke-width: 1; stroke-dasharray: none; stroke-linecap: butt; stroke-linejoin: miter; stroke-miterlimit: 10; fill: rgb(141,88,60); fill-rule: nonzero; opacity: 1;" transform=" matrix(1 0 0 1 0 0) " stroke-linecap="round"/>
	<path d="M 25.14 76.232 h -4.044 c -0.975 0 -1.766 -0.791 -1.766 -1.766 v -12.16 h 7.575 v 12.16 C 26.905 75.441 26.115 76.232 25.14 76.232 z" style="stroke: none; stroke-width: 1; stroke-dasharray: none; stroke-linecap: butt; stroke-linejoin: miter; stroke-miterlimit: 10; fill: rgb(141,88,60); fill-rule: nonzero; opacity: 1;" transform=" matrix(1 0 0 1 0 0) " stroke-linecap="round"/>
	<path d="M 47.299 81.163 h -4.598 c -0.975 0 -1.766 -0.791 -1.766 -1.766 V 66.218 h 8.13 v 13.179 C 49.065 80.373 48.274 81.163 47.299 81.163 z" style="stroke: none; stroke-width: 1; stroke-dasharray: none; stroke-linecap: butt; stroke-linejoin: miter; stroke-miterlimit: 10; fill: rgb(165,102,69); fill-rule: nonzero; opacity: 1;" transform=" matrix(1 0 0 1 0 0) " stroke-linecap="round"/>
	<path d="M 44.031 59.963 l 7.701 -11.199 C 52 48.373 51.72 47.84 51.246 47.84 h -3.059 c -1.205 0 -1.915 -1.351 -1.233 -2.344 l 7.817 -11.368 c 0.269 -0.391 -0.011 -0.923 -0.485 -0.923 h -2.564 c -1.205 0 -1.915 -1.351 -1.233 -2.344 L 64.929 9.864 c 0.942 -1.37 2.965 -1.37 3.907 0 l 14.439 20.998 c 0.683 0.993 -0.028 2.344 -1.233 2.344 h -2.564 c -0.474 0 -0.754 0.532 -0.485 0.923 l 7.817 11.368 c 0.683 0.993 -0.028 2.344 -1.233 2.344 h -3.059 c -0.474 0 -0.754 0.532 -0.485 0.923 l 7.701 11.199 c 0.683 0.993 -0.028 2.344 -1.233 2.344 H 45.263 C 44.059 62.306 43.348 60.955 44.031 59.963 z" style="stroke: none; stroke-width: 1; stroke-dasharray: none; stroke-linecap: butt; stroke-linejoin: miter; stroke-miterlimit: 10; fill: rgb(0,114,69); fill-rule: nonzero; opacity: 1;" transform=" matrix(1 0 0 1 0 0) " stroke-linecap="round"/>
	<path d="M 45.969 59.963 l -7.701 -11.199 C 38 48.373 38.28 47.84 38.754 47.84 h 3.059 c 1.205 0 1.915 -1.351 1.233 -2.344 l -7.817 -11.368 c -0.269 -0.391 0.011 -0.923 0.485 -0.923 h 2.564 c 1.205 0 1.915 -1.351 1.233 -2.344 L 25.071 9.864 c -0.942 -1.37 -2.965 -1.37 -3.907 0 L 6.725 30.862 c -0.683 0.993 0.028 2.344 1.233 2.344 h 2.564 c 0.474 0 0.754 0.532 0.485 0.923 L 3.19 45.497 c -0.683 0.993 0.028 2.344 1.233 2.344 h 3.059 c 0.474 0 0.754 0.532 0.485 0.923 L 0.266 59.963 c -0.683 0.993 0.028 2.344 1.233 2.344 h 43.238 C 45.941 62.306 46.652 60.955 45.969 59.963 z" style="stroke: none; stroke-width: 1; stroke-dasharray: none; stroke-linecap: butt; stroke-linejoin: miter; stroke-miterlimit: 10; fill: rgb(0,114,69); fill-rule: nonzero; opacity: 1;" transform=" matrix(1 0 0 1 0 0) " stroke-linecap="round"/>
	<path d="M 69.524 63.703 L 61.26 51.685 c -0.288 -0.419 0.012 -0.99 0.521 -0.99 h 3.283 c 1.293 0 2.055 -1.45 1.323 -2.515 l -8.389 -12.2 c -0.288 -0.419 0.012 -0.99 0.521 -0.99 h 2.751 c 1.293 0 2.055 -1.45 1.323 -2.515 L 47.097 9.94 c -1.011 -1.47 -3.182 -1.47 -4.193 0 L 27.408 32.474 c -0.732 1.065 0.03 2.515 1.323 2.515 h 2.751 c 0.509 0 0.809 0.571 0.521 0.99 l -8.389 12.2 c -0.732 1.065 0.03 2.515 1.323 2.515 h 3.283 c 0.509 0 0.809 0.571 0.521 0.99 l -8.264 12.019 c -0.732 1.065 0.03 2.515 1.323 2.515 h 46.402 C 69.494 66.218 70.256 64.769 69.524 63.703 z" style="stroke: none; stroke-width: 1; stroke-dasharray: none; stroke-linecap: butt; stroke-linejoin: miter; stroke-miterlimit: 10; fill: rgb(0,143,87); fill-rule: nonzero; opacity: 1;" transform=" matrix(1 0 0 1 0 0) " stroke-linecap="round"/>
	<path d="M 45 35.989 H 30.482 c -0.552 0 -1 -0.448 -1 -1 s 0.448 -1 1 -1 H 45 c 0.552 0 1 0.448 1 1 S 45.552 35.989 45 35.989 z" style="stroke: none; stroke-width: 1; stroke-dasharray: none; stroke-linecap: butt; stroke-linejoin: miter; stroke-miterlimit: 10; fill: rgb(0,114,69); fill-rule: nonzero; opacity: 1;" transform=" matrix(1 0 0 1 0 0) " stroke-linecap="round"/>
	<path d="M 45 51.694 H 28.22 c -0.552 0 -1 -0.447 -1 -1 s 0.448 -1 1 -1 H 45 c 0.552 0 1 0.447 1 1 S 45.552 51.694 45 51.694 z" style="stroke: none; stroke-width: 1; stroke-dasharray: none; stroke-linecap: butt; stroke-linejoin: miter; stroke-miterlimit: 10; fill: rgb(0,114,69); fill-rule: nonzero; opacity: 1;" transform=" matrix(1 0 0 1 0 0) " stroke-linecap="round"/>
	<path d="M 7.914 48.841 h 9.843 c 0.552 0 1 -0.447 1 -1 s -0.448 -1 -1 -1 H 7.481 c -0.552 0 -1 0.447 -1 1 h 1 c 0.474 0 0.754 0.532 0.485 0.923 L 7.914 48.841 z" style="stroke: none; stroke-width: 1; stroke-dasharray: none; stroke-linecap: butt; stroke-linejoin: miter; stroke-miterlimit: 10; fill: rgb(0,89,54); fill-rule: nonzero; opacity: 1;" transform=" matrix(1 0 0 1 0 0) " stroke-linecap="round"/>
	<path d="M 10.954 34.206 h 6.803 c 0.552 0 1 -0.448 1 -1 s -0.448 -1 -1 -1 H 9.59 c -0.552 0 -1 0.448 -1 1 h 1.931 c 0.474 0 0.754 0.532 0.485 0.923 L 10.954 34.206 z" style="stroke: none; stroke-width: 1; stroke-dasharray: none; stroke-linecap: butt; stroke-linejoin: miter; stroke-miterlimit: 10; fill: rgb(0,89,54); fill-rule: nonzero; opacity: 1;" transform=" matrix(1 0 0 1 0 0) " stroke-linecap="round"/>
	<path d="M 82.033 48.763 c -0.269 -0.391 0.011 -0.923 0.485 -0.923 h 1 c 0 -0.552 -0.447 -1 -1 -1 H 72.243 c -0.553 0 -1 0.447 -1 1 s 0.447 1 1 1 h 9.843 L 82.033 48.763 z" style="stroke: none; stroke-width: 1; stroke-dasharray: none; stroke-linecap: butt; stroke-linejoin: miter; stroke-miterlimit: 10; fill: rgb(0,89,54); fill-rule: nonzero; opacity: 1;" transform=" matrix(1 0 0 1 0 0) " stroke-linecap="round"/>
	<path d="M 72.243 34.206 h 6.803 l -0.053 -0.077 c -0.269 -0.391 0.011 -0.923 0.485 -0.923 h 1.932 c 0 -0.552 -0.447 -1 -1 -1 h -8.167 c -0.553 0 -1 0.448 -1 1 S 71.69 34.206 72.243 34.206 z" style="stroke: none; stroke-width: 1; stroke-dasharray: none; stroke-linecap: butt; stroke-linejoin: miter; stroke-miterlimit: 10; fill: rgb(0,89,54); fill-rule: nonzero; opacity: 1;" transform=" matrix(1 0 0 1 0 0) " stroke-linecap="round"/>
</g>
</svg>